<svg xmlns="http://www.w3.org/2000/svg" xmlns:xlink="http://www.w3.org/1999/xlink" version="1.1" x="0px" y="0px" viewBox="5.0 -10.0 100.0 135.0" enable-background="new 0 0 100 100" xml:space="preserve" height="100px" width="100px">
<g id="&#1057;&#1083;&#1086;&#1081;_2" display="none">
</g>
<g id="&#1057;&#1083;&#1086;&#1081;_1">
	<path d="M38.4,95L38.4,95c1.7,0,3.3-0.2,4.9-0.6l6.7-1.7l6.7,1.7c1.6,0.4,3.2,0.6,4.8,0.6c5.3,0,10.4-2.1,14.1-5.8l0.2-0.2   c10.7-10.6,16.6-24.6,16.6-39.6c0-14.8-12.2-26.9-27.2-26.9c-4.1,0-8.2,0.5-12.2,1.5l-1.8,0.5v-0.8c0-6.4,3.6-12.2,9.3-15.1   c0.6-0.3,0.9-1.1,0.6-1.7c-0.3-0.6-1.1-0.9-1.7-0.6c-3.9,1.9-6.9,5.1-8.7,8.8c-4-5.6-10.4-8.9-17.3-8.9c-2.4,0-4.7,0.4-7,1.2   L24.8,8l0.9,1.3c4,5.9,10.6,9.4,17.6,9.4c2.1,0,4.2-0.3,6.3-1c-0.6,1.9-0.9,3.9-0.9,5.9v0.8L46.9,24c-4-1-8.1-1.5-12.2-1.5   c-15,0-27.2,12.1-27.2,26.9v0.1c0,14.9,6.1,29.4,16.8,39.8C28.1,93,33.1,95,38.4,95z M43.4,16.3c-5.7,0-11-2.6-14.5-6.9   c1.5-0.4,3-0.6,4.5-0.6c5.7,0,11,2.6,14.6,6.9C46.4,16.1,44.9,16.3,43.4,16.3z M10,49.4C10,35.9,21.1,25,34.7,25h0   c3.9,0,7.8,0.5,11.6,1.4l3.7,0.9l3.7-0.9c3.8-0.9,7.7-1.4,11.6-1.4C78.9,25,90,35.9,90,49.4v0c0,14.2-5.7,27.8-15.8,37.8L74,87.4   c-3.3,3.2-7.7,5.1-12.4,5.1c-1.4,0-2.9-0.2-4.2-0.5L50,90.2L42.7,92c-1.4,0.3-2.8,0.5-4.2,0.5h-0.1c-4.6,0-9-1.8-12.3-5v0   C15.8,77.5,10,63.8,10,49.4L10,49.4z"/>
	<path d="M35.9,35c0-0.7-0.6-1.3-1.3-1.3c-8.8,0-15.9,7.1-15.9,15.7c0,0.7,0.6,1.3,1.3,1.3s1.3-0.6,1.3-1.3c0-7.3,6-13.2,13.4-13.2   C35.4,36.3,35.9,35.7,35.9,35z"/>
</g>
<text x="0.0" y="117.5" font-size="5.0" font-weight="bold" font-family="Helvetica Neue, Helvetica, Arial-Unicode, Arial, Sans-serif" fill="#000000">Created by Arthur Shlain</text><text x="0.0" y="122.5" font-size="5.0" font-weight="bold" font-family="Helvetica Neue, Helvetica, Arial-Unicode, Arial, Sans-serif" fill="#000000">from the Noun Project</text></svg>